<svg width="223" height="49" viewBox="0 0 223 49" fill="none" xmlns="http://www.w3.org/2000/svg">
<path d="M0.310547 4.14502C0.310547 1.93588 2.10141 0.14502 4.31055 0.14502H44.3105C46.5197 0.14502 48.3105 1.93588 48.3105 4.14502V44.145C48.3105 46.3542 46.5197 48.145 44.3105 48.145H4.31055C2.10141 48.145 0.310547 46.3542 0.310547 44.145V4.14502Z" fill="#1F1F1F"/>
<path d="M24.3105 30.7839C15.4263 30.7839 8.47046 27.7537 8.47046 23.897C8.47046 20.0403 15.4263 17.01 24.3105 17.01C33.1946 17.01 40.1505 20.0403 40.1505 23.897C40.1505 27.7537 33.1946 30.7839 24.3105 30.7839ZM24.3105 18.3874C15.6329 18.3874 9.84785 21.2111 9.84785 23.897C9.84785 26.5829 15.6329 29.4065 24.3105 29.4065C32.988 29.4065 38.7731 26.5829 38.7731 23.897C38.7731 21.2111 32.988 18.3874 24.3105 18.3874Z" fill="#61DAFB"/>
<path d="M18.1816 38.0841C17.4929 38.0841 16.9419 37.9464 16.391 37.602C13.0164 35.6737 13.9117 28.1669 18.3193 20.4535C20.3854 16.8723 22.9336 13.842 25.4129 11.9137C28.0988 9.84758 30.5092 9.22776 32.1621 10.1919C33.8838 11.1561 34.5037 13.5665 34.0905 16.9412C33.6772 20.1092 32.2998 23.8281 30.2338 27.4093C28.1677 30.9905 25.6195 34.0208 23.1402 35.9492C21.3496 37.3265 19.6278 38.0841 18.1816 38.0841ZM30.4404 11.0872C29.3385 11.0872 27.8922 11.7071 26.3082 12.9467C23.9666 14.8062 21.5562 17.6987 19.559 21.1422C15.2202 28.649 14.807 35.1227 17.0797 36.4312C18.2505 37.1199 20.1788 36.5001 22.3138 34.8472C24.6553 32.9878 27.0658 30.0952 29.063 26.6518C31.0602 23.2083 32.3687 19.6959 32.7819 16.7345C33.1263 13.9798 32.7131 12.0514 31.5423 11.3627C31.1979 11.225 30.8536 11.0872 30.4404 11.0872Z" fill="#61DAFB"/>
<path d="M30.5084 38.0842C27.0649 38.0842 22.1063 33.8831 18.3874 27.3405C13.9109 19.6271 13.0155 12.1204 16.3902 10.192C19.7648 8.26366 25.8253 12.7402 30.3018 20.4536C32.3679 24.0348 33.7453 27.7538 34.1585 30.9218C34.6406 34.2964 33.9519 36.6379 32.2302 37.671C31.6792 37.9464 31.1282 38.0842 30.5084 38.0842ZM17.0789 11.3628C14.8062 12.6713 15.2194 19.1451 19.5582 26.6518C23.8969 34.1586 29.2688 37.7398 31.5415 36.4313C32.7122 35.7426 33.1255 33.8143 32.7811 31.0595C32.3679 28.0981 31.0594 24.5858 29.0622 21.1423C24.7234 13.6355 19.3515 10.0543 17.0789 11.3628Z" fill="#61DAFB"/>
<path d="M24.3095 26.6509C25.8309 26.6509 27.0643 25.4176 27.0643 23.8961C27.0643 22.3747 25.8309 21.1414 24.3095 21.1414C22.788 21.1414 21.5547 22.3747 21.5547 23.8961C21.5547 25.4176 22.788 26.6509 24.3095 26.6509Z" fill="#61DAFB"/>
<path d="M58.3105 4.14502C58.3105 1.93588 60.1014 0.14502 62.3105 0.14502H102.311C104.52 0.14502 106.311 1.93588 106.311 4.14502V44.145C106.311 46.3542 104.52 48.145 102.311 48.145H62.3105C60.1014 48.145 58.3105 46.3542 58.3105 44.145V4.14502Z" fill="#1F1F1F"/>
<path d="M66.4705 10.7051L70.6027 13.4599V27.234L66.4705 24.4792V10.7051Z" fill="#29B6F6"/>
<path d="M98.151 21.0356L94.0188 23.7905V32.7436L98.151 29.9888V21.0356Z" fill="#0288D1"/>
<path d="M98.151 11.3938L94.0188 14.1486V18.9696L98.151 16.2147V11.3938Z" fill="#0288D1"/>
<path d="M89.8856 10.7051L85.7534 13.4599V27.234L89.8856 24.4792V10.7051Z" fill="#0288D1"/>
<path d="M66.4705 15.526L78.1784 23.1018V18.2808L66.4705 10.7051V15.526Z" fill="#29B6F6"/>
<path d="M89.8857 15.526L78.1777 23.1018V18.2808L89.8857 10.7051V15.526Z" fill="#0288D1"/>
<path d="M89.8857 25.1679L78.1777 32.7436V27.9227L89.8857 20.3469V25.1679Z" fill="#0288D1"/>
<path d="M98.1504 30.6776L86.4424 38.2534V33.4324L98.1504 25.8567V30.6776Z" fill="#0288D1"/>
<path d="M86.4422 33.2706L78.1777 27.9229V32.7438L86.4422 38.0916V33.2706Z" fill="#29B6F6"/>
<path d="M116.311 4.14502C116.311 1.93588 118.101 0.14502 120.311 0.14502H160.311C162.52 0.14502 164.311 1.93588 164.311 4.14502V44.145C164.311 46.3542 162.52 48.145 160.311 48.145H120.311C118.101 48.145 116.311 46.3542 116.311 44.145V4.14502Z" fill="#1F1F1F"/>
<path d="M128.47 40.4649C126.261 40.4649 124.47 38.6741 124.47 36.4649V12.7849C124.47 10.5758 126.261 8.78491 128.47 8.78491H152.15C154.36 8.78491 156.15 10.5758 156.15 12.7849V36.4649C156.15 38.6741 154.36 40.4649 152.15 40.4649H128.47Z" fill="#FFD600"/>
<path d="M145.184 32.4984C145.793 33.4875 146.454 34.4352 147.856 34.4352C149.034 34.4352 149.652 33.85 149.652 33.0404C149.652 32.0716 149.013 31.7275 147.717 31.1634L147.007 30.8607C144.958 29.9912 143.594 28.9018 143.594 26.6006C143.594 24.4798 145.218 22.8659 147.755 22.8659C149.562 22.8659 150.86 23.4915 151.796 25.1301L149.584 26.5443C149.097 25.6748 148.571 25.3325 147.755 25.3325C146.923 25.3325 146.396 25.8579 146.396 26.5443C146.396 27.3926 146.924 27.7358 148.142 28.2612L148.852 28.5639C151.268 29.5926 152.63 30.6433 152.63 33.0052C152.63 35.5502 150.62 36.945 147.922 36.945C145.283 36.945 143.785 35.6206 142.95 33.9812L145.184 32.4984ZM134.988 32.5705C135.433 33.3678 136.11 33.9812 137.083 33.9812C138.014 33.9812 138.55 33.6133 138.55 32.1833V22.865H141.483V32.6339C141.483 35.5968 139.765 36.945 137.255 36.945C134.987 36.945 133.35 35.4085 132.683 33.9812L134.988 32.5705Z" fill="#000001"/>
<path d="M174.311 4.14502C174.311 1.93588 176.101 0.14502 178.311 0.14502H218.311C220.52 0.14502 222.311 1.93588 222.311 4.14502V44.145C222.311 46.3542 220.52 48.145 218.311 48.145H178.311C176.101 48.145 174.311 46.3542 174.311 44.145V4.14502Z" fill="#1F1F1F"/>
<path d="M209.311 9.74487H187.311C185.101 9.74487 183.311 11.5357 183.311 13.7449V35.7449C183.311 37.954 185.101 39.7449 187.311 39.7449H209.311C211.52 39.7449 213.311 37.954 213.311 35.7449V13.7449C213.311 11.5357 211.52 9.74487 209.311 9.74487Z" fill="#1976D2"/>
<path d="M201.219 23.0784H190.166V25.7984H194.13V38.0784H197.271V25.7984H201.219V23.0784Z" fill="#141414"/>
<path d="M210.972 26.4814C210.972 26.4814 209.483 25.4881 207.799 25.4881C206.116 25.4881 205.51 26.2881 205.51 27.1431C205.51 29.3497 211.661 29.1289 211.661 33.5697C211.661 40.4106 202.283 37.3764 202.283 37.3764V34.0947C202.283 34.0947 204.076 35.4464 206.227 35.4464C208.378 35.4464 208.296 34.0397 208.296 33.8464C208.296 31.8056 202.2 31.8056 202.2 27.2814C202.2 21.1306 211.082 23.5572 211.082 23.5572L210.972 26.4814Z" fill="#141414"/>
</svg>
